2026-04-20 10:09:24 -> Iniciando PORTON1
ffmpeg version 7.1.3-0+deb13u1 Copyright (c) 2000-2025 the FFmpeg developers
  built with gcc 14 (Debian 14.2.0-19)
  configuration: --prefix=/usr --extra-version=0+deb13u1 --toolchain=hardened --libdir=/usr/lib/x86_64-linux-gnu --incdir=/usr/include/x86_64-linux-gnu --arch=amd64 --enable-gpl --disable-stripping --disable-libmfx --disable-omx --enable-gnutls --enable-libaom --enable-libass --enable-libbs2b --enable-libcdio --enable-libcodec2 --enable-libdav1d --enable-libflite --enable-libfontconfig --enable-libfreetype --enable-libfribidi --enable-libglslang --enable-libgme --enable-libgsm --enable-libharfbuzz --enable-libmp3lame --enable-libmysofa --enable-libopenjpeg --enable-libopenmpt --enable-libopus --enable-librubberband --enable-libshine --enable-libsnappy --enable-libsoxr --enable-libspeex --enable-libtheora --enable-libtwolame --enable-libvidstab --enable-libvorbis --enable-libvpx --enable-libwebp --enable-libx265 --enable-libxml2 --enable-libxvid --enable-libzimg --enable-openal --enable-opencl --enable-opengl --disable-sndio --enable-libvpl --enable-libdc1394 --enable-libdrm --enable-libiec61883 --enable-chromaprint --enable-frei0r --enable-ladspa --enable-libbluray --enable-libcaca --enable-libdvdnav --enable-libdvdread --enable-libjack --enable-libpulse --enable-librabbitmq --enable-librist --enable-libsrt --enable-libssh --enable-libsvtav1 --enable-libx264 --enable-libzmq --enable-libzvbi --enable-lv2 --enable-sdl2 --enable-libplacebo --enable-librav1e --enable-pocketsphinx --enable-librsvg --enable-libjxl --enable-shared
  libavutil      59. 39.100 / 59. 39.100
  libavcodec     61. 19.101 / 61. 19.101
  libavformat    61.  7.100 / 61.  7.100
  libavdevice    61.  3.100 / 61.  3.100
  libavfilter    10.  4.100 / 10.  4.100
  libswscale      8.  3.100 /  8.  3.100
  libswresample   5.  3.100 /  5.  3.100
  libpostproc    58.  3.100 / 58.  3.100
Input #0, rtsp, from 'rtsp://visor:R0B10T3C2025@192.168.1.215:554/Streaming/Channels/201':
  Metadata:
    title           : Media Presentation
  Duration: N/A, start: 0.000000, bitrate: N/A
  Stream #0:0: Video: h264 (Main), yuvj420p(pc, bt709, progressive), 2560x1440, 30 fps, 30 tbr, 90k tbn
  Stream #0:1: Audio: pcm_mulaw, 8000 Hz, mono, s16, 64 kb/s
Stream mapping:
  Stream #0:0 -> #0:0 (copy)
  Stream #0:1 -> #0:1 (pcm_mulaw (native) -> opus (libopus))
Press [q] to stop, [?] for help
Output #0, rtsp, to 'rtsp://136.119.96.176:8554/PORTON1':
  Metadata:
    title           : Media Presentation
    encoder         : Lavf61.7.100
  Stream #0:0: Video: h264 (Main), yuvj420p(pc, bt709, progressive), 2560x1440, q=2-31, 30 fps, 30 tbr, 90k tbn
  Stream #0:1: Audio: opus, 48000 Hz, stereo, s16, 96 kb/s
      Metadata:
        encoder         : Lavc61.19.101 libopus
[rtsp @ 0x563b57a56180] Timestamps are unset in a packet for stream 0. This is deprecated and will stop working in the future. Fix your code to set the timestamps properly
frame=   28 fps= 28 q=-1.0 size=N/A time=00:00:00.13 bitrate=N/A speed=0.133x    frame=   72 fps= 48 q=-1.0 size=N/A time=00:00:02.39 bitrate=N/A speed= 1.6x    frame=   87 fps= 43 q=-1.0 size=N/A time=00:00:02.89 bitrate=N/A speed=1.45x    frame=  102 fps= 41 q=-1.0 size=N/A time=00:00:03.37 bitrate=N/A speed=1.35x    frame=  118 fps= 39 q=-1.0 size=N/A time=00:00:03.89 bitrate=N/A speed= 1.3x    frame=  132 fps= 38 q=-1.0 size=N/A time=00:00:04.39 bitrate=N/A speed=1.26x    frame=  147 fps= 37 q=-1.0 size=N/A time=00:00:04.89 bitrate=N/A speed=1.22x    frame=  162 fps= 36 q=-1.0 size=N/A time=00:00:05.39 bitrate=N/A speed= 1.2x    frame=  177 fps= 35 q=-1.0 size=N/A time=00:00:05.89 bitrate=N/A speed=1.18x    frame=  192 fps= 35 q=-1.0 size=N/A time=00:00:06.39 bitrate=N/A speed=1.16x    frame=  207 fps= 34 q=-1.0 size=N/A time=00:00:06.89 bitrate=N/A speed=1.15x    frame=  222 fps= 34 q=-1.0 size=N/A time=00:00:07.39 bitrate=N/A speed=1.14x    frame=  237 fps= 34 q=-1.0 size=N/A time=00:00:07.89 bitrate=N/A speed=1.13x    frame=  251 fps= 33 q=-1.0 size=N/A time=00:00:08.36 bitrate=N/A speed=1.12x    frame=  267 fps= 33 q=-1.0 size=N/A time=00:00:08.89 bitrate=N/A speed=1.11x    frame=  282 fps= 33 q=-1.0 size=N/A time=00:00:09.39 bitrate=N/A speed=1.11x    frame=  297 fps= 33 q=-1.0 size=N/A time=00:00:09.89 bitrate=N/A speed= 1.1x    frame=  312 fps= 33 q=-1.0 size=N/A time=00:00:10.39 bitrate=N/A speed=1.09x    frame=  327 fps= 33 q=-1.0 size=N/A time=00:00:10.89 bitrate=N/A speed=1.09x    frame=  342 fps= 33 q=-1.0 size=N/A time=00:00:11.39 bitrate=N/A speed=1.09x    frame=  357 fps= 32 q=-1.0 size=N/A time=00:00:11.89 bitrate=N/A speed=1.08x    frame=  372 fps= 32 q=-1.0 size=N/A time=00:00:12.39 bitrate=N/A speed=1.08x    frame=  387 fps= 32 q=-1.0 size=N/A time=00:00:12.89 bitrate=N/A speed=1.07x    frame=  402 fps= 32 q=-1.0 size=N/A time=00:00:13.37 bitrate=N/A speed=1.07x    frame=  417 fps= 32 q=-1.0 size=N/A time=00:00:13.89 bitrate=N/A speed=1.07x    frame=  432 fps= 32 q=-1.0 size=N/A time=00:00:14.39 bitrate=N/A speed=1.07x    frame=  448 fps= 32 q=-1.0 size=N/A time=00:00:14.93 bitrate=N/A speed=1.07x    frame=  462 fps= 32 q=-1.0 size=N/A time=00:00:15.39 bitrate=N/A speed=1.06x    frame=  478 fps= 32 q=-1.0 size=N/A time=00:00:15.93 bitrate=N/A speed=1.06x    frame=  492 fps= 32 q=-1.0 size=N/A time=00:00:16.39 bitrate=N/A speed=1.06x    frame=  507 fps= 32 q=-1.0 size=N/A time=00:00:16.89 bitrate=N/A speed=1.06x    frame=  522 fps= 32 q=-1.0 size=N/A time=00:00:17.39 bitrate=N/A speed=1.05x    frame=  538 fps= 32 q=-1.0 size=N/A time=00:00:17.93 bitrate=N/A speed=1.05x    frame=  552 fps= 32 q=-1.0 size=N/A time=00:00:18.37 bitrate=N/A speed=1.05x    frame=  567 fps= 31 q=-1.0 size=N/A time=00:00:18.89 bitrate=N/A speed=1.05x    frame=  582 fps= 31 q=-1.0 size=N/A time=00:00:19.39 bitrate=N/A speed=1.05x    frame=  597 fps= 31 q=-1.0 size=N/A time=00:00:19.89 bitrate=N/A speed=1.05x    frame=  612 fps= 31 q=-1.0 size=N/A time=00:00:20.39 bitrate=N/A speed=1.05x    frame=  628 fps= 31 q=-1.0 size=N/A time=00:00:20.93 bitrate=N/A speed=1.05x    frame=  642 fps= 31 q=-1.0 size=N/A time=00:00:21.39 bitrate=N/A speed=1.04x    frame=  658 fps= 31 q=-1.0 size=N/A time=00:00:21.93 bitrate=N/A speed=1.04x    frame=  673 fps= 31 q=-1.0 size=N/A time=00:00:22.41 bitrate=N/A speed=1.04x    frame=  688 fps= 31 q=-1.0 size=N/A time=00:00:22.89 bitrate=N/A speed=1.04x    frame=  702 fps= 31 q=-1.0 size=N/A time=00:00:23.39 bitrate=N/A speed=1.04x    frame=  718 fps= 31 q=-1.0 size=N/A time=00:00:23.93 bitrate=N/A speed=1.04x    frame=  732 fps= 31 q=-1.0 size=N/A time=00:00:24.39 bitrate=N/A speed=1.04x    frame=  748 fps= 31 q=-1.0 size=N/A time=00:00:24.93 bitrate=N/A speed=1.04x    frame=  762 fps= 31 q=-1.0 size=N/A time=00:00:25.39 bitrate=N/A speed=1.04x    frame=  778 fps= 31 q=-1.0 size=N/A time=00:00:25.93 bitrate=N/A speed=1.04x    frame=  792 fps= 31 q=-1.0 size=N/A time=00:00:26.39 bitrate=N/A speed=1.03x    frame=  808 fps= 31 q=-1.0 size=N/A time=00:00:26.93 bitrate=N/A speed=1.04x    frame=  822 fps= 31 q=-1.0 size=N/A time=00:00:27.39 bitrate=N/A speed=1.03x    frame=  838 fps= 31 q=-1.0 size=N/A time=00:00:27.93 bitrate=N/A speed=1.03x    frame=  852 fps= 31 q=-1.0 size=N/A time=00:00:28.39 bitrate=N/A speed=1.03x    frame=  867 fps= 31 q=-1.0 size=N/A time=00:00:28.89 bitrate=N/A speed=1.03x    frame=  882 fps= 31 q=-1.0 size=N/A time=00:00:29.39 bitrate=N/A speed=1.03x    frame=  898 fps= 31 q=-1.0 size=N/A time=00:00:29.93 bitrate=N/A speed=1.03x    frame=  912 fps= 31 q=-1.0 size=N/A time=00:00:30.39 bitrate=N/A speed=1.03x    frame=  928 fps= 31 q=-1.0 size=N/A time=00:00:30.93 bitrate=N/A speed=1.03x    frame=  942 fps= 31 q=-1.0 size=N/A time=00:00:31.39 bitrate=N/A speed=1.03x    frame=  958 fps= 31 q=-1.0 size=N/A time=00:00:31.93 bitrate=N/A speed=1.03x    frame=  973 fps= 31 q=-1.0 size=N/A time=00:00:32.41 bitrate=N/A speed=1.03x    frame=  987 fps= 31 q=-1.0 size=N/A time=00:00:32.89 bitrate=N/A speed=1.03x    frame= 1002 fps= 31 q=-1.0 size=N/A time=00:00:33.39 bitrate=N/A speed=1.03x    frame= 1018 fps= 31 q=-1.0 size=N/A time=00:00:33.93 bitrate=N/A speed=1.03x    frame= 1033 fps= 31 q=-1.0 size=N/A time=00:00:34.41 bitrate=N/A speed=1.03x    frame= 1048 fps= 31 q=-1.0 size=N/A time=00:00:34.93 bitrate=N/A speed=1.03x    frame= 1063 fps= 31 q=-1.0 size=N/A time=00:00:35.41 bitrate=N/A speed=1.03x    frame= 1078 fps= 31 q=-1.0 size=N/A time=00:00:35.93 bitrate=N/A speed=1.03x    frame= 1093 fps= 31 q=-1.0 size=N/A time=00:00:36.41 bitrate=N/A speed=1.03x    frame= 1108 fps= 31 q=-1.0 size=N/A time=00:00:36.93 bitrate=N/A speed=1.03x    frame= 1123 fps= 31 q=-1.0 size=N/A time=00:00:37.41 bitrate=N/A speed=1.02x    frame= 1138 fps= 31 q=-1.0 size=N/A time=00:00:37.93 bitrate=N/A speed=1.02x    frame= 1151 fps= 31 q=-1.0 size=N/A time=00:00:38.36 bitrate=N/A speed=1.02x    frame= 1168 fps= 31 q=-1.0 size=N/A time=00:00:38.93 bitrate=N/A speed=1.02x    frame= 1183 fps= 31 q=-1.0 size=N/A time=00:00:39.41 bitrate=N/A speed=1.02x    frame= 1198 fps= 31 q=-1.0 size=N/A time=00:00:39.93 bitrate=N/A speed=1.02x    frame= 1213 fps= 31 q=-1.0 size=N/A time=00:00:40.41 bitrate=N/A speed=1.02x    frame= 1228 fps= 31 q=-1.0 size=N/A time=00:00:40.93 bitrate=N/A speed=1.02x    frame= 1243 fps= 31 q=-1.0 size=N/A time=00:00:41.41 bitrate=N/A speed=1.02x    frame= 1258 fps= 31 q=-1.0 size=N/A time=00:00:41.93 bitrate=N/A speed=1.02x    frame= 1273 fps= 31 q=-1.0 size=N/A time=00:00:42.41 bitrate=N/A speed=1.02x    frame= 1288 fps= 31 q=-1.0 size=N/A time=00:00:42.93 bitrate=N/A speed=1.02x    frame= 1302 fps= 31 q=-1.0 size=N/A time=00:00:43.39 bitrate=N/A speed=1.02x    frame= 1318 fps= 31 q=-1.0 size=N/A time=00:00:43.93 bitrate=N/A speed=1.02x    frame= 1333 fps= 31 q=-1.0 size=N/A time=00:00:44.41 bitrate=N/A speed=1.02x    frame= 1348 fps= 31 q=-1.0 size=N/A time=00:00:44.93 bitrate=N/A speed=1.02x    frame= 1363 fps= 31 q=-1.0 size=N/A time=00:00:45.41 bitrate=N/A speed=1.02x    frame= 1377 fps= 31 q=-1.0 size=N/A time=00:00:45.89 bitrate=N/A speed=1.02x    frame= 1393 fps= 31 q=-1.0 size=N/A time=00:00:46.41 bitrate=N/A speed=1.02x    frame= 1408 fps= 31 q=-1.0 size=N/A time=00:00:46.93 bitrate=N/A speed=1.02x    frame= 1422 fps= 31 q=-1.0 size=N/A time=00:00:47.39 bitrate=N/A speed=1.02x    frame= 1438 fps= 31 q=-1.0 size=N/A time=00:00:47.93 bitrate=N/A speed=1.02x    frame= 1452 fps= 31 q=-1.0 size=N/A time=00:00:48.39 bitrate=N/A speed=1.02x    frame= 1467 fps= 31 q=-1.0 size=N/A time=00:00:48.89 bitrate=N/A speed=1.02x    frame= 1483 fps= 31 q=-1.0 size=N/A time=00:00:49.43 bitrate=N/A speed=1.02x    frame= 1498 fps= 31 q=-1.0 size=N/A time=00:00:49.93 bitrate=N/A speed=1.02x    frame= 1513 fps= 31 q=-1.0 size=N/A time=00:00:50.43 bitrate=N/A speed=1.02x    frame= 1528 fps= 31 q=-1.0 size=N/A time=00:00:50.93 bitrate=N/A speed=1.02x    frame= 1543 fps= 31 q=-1.0 size=N/A time=00:00:51.41 bitrate=N/A speed=1.02x    frame= 1558 fps= 31 q=-1.0 size=N/A time=00:00:51.93 bitrate=N/A speed=1.02x    frame= 1573 fps= 31 q=-1.0 size=N/A time=00:00:52.41 bitrate=N/A speed=1.02x    frame= 1588 fps= 31 q=-1.0 size=N/A time=00:00:52.93 bitrate=N/A speed=1.02x    frame= 1602 fps= 31 q=-1.0 size=N/A time=00:00:53.39 bitrate=N/A speed=1.02x    frame= 1618 fps= 31 q=-1.0 size=N/A time=00:00:53.93 bitrate=N/A speed=1.02x    frame= 1633 fps= 31 q=-1.0 size=N/A time=00:00:54.41 bitrate=N/A speed=1.02x    frame= 1648 fps= 31 q=-1.0 size=N/A time=00:00:54.93 bitrate=N/A speed=1.02x    frame= 1663 fps= 31 q=-1.0 size=N/A time=00:00:55.41 bitrate=N/A speed=1.02x    frame= 1678 fps= 30 q=-1.0 size=N/A time=00:00:55.93 bitrate=N/A speed=1.02x    frame= 1693 fps= 30 q=-1.0 size=N/A time=00:00:56.41 bitrate=N/A speed=1.02x    frame= 1708 fps= 30 q=-1.0 size=N/A time=00:00:56.93 bitrate=N/A speed=1.02x    frame= 1723 fps= 30 q=-1.0 size=N/A time=00:00:57.43 bitrate=N/A speed=1.02x    frame= 1738 fps= 30 q=-1.0 size=N/A time=00:00:57.93 bitrate=N/A speed=1.02x    frame= 1752 fps= 30 q=-1.0 size=N/A time=00:00:58.37 bitrate=N/A speed=1.01x    frame= 1768 fps= 30 q=-1.0 size=N/A time=00:00:58.93 bitrate=N/A speed=1.02x    frame= 1783 fps= 30 q=-1.0 size=N/A time=00:00:59.41 bitrate=N/A speed=1.02x    frame= 1798 fps= 30 q=-1.0 size=N/A time=00:00:59.93 bitrate=N/A speed=1.02x    frame= 1813 fps= 30 q=-1.0 size=N/A time=00:01:00.43 bitrate=N/A speed=1.02x    frame= 1828 fps= 30 q=-1.0 size=N/A time=00:01:00.93 bitrate=N/A speed=1.02x    frame= 1843 fps= 30 q=-1.0 size=N/A time=00:01:01.43 bitrate=N/A speed=1.02x    frame= 1858 fps= 30 q=-1.0 size=N/A time=00:01:01.93 bitrate=N/A speed=1.01x    frame= 1873 fps= 30 q=-1.0 size=N/A time=00:01:02.41 bitrate=N/A speed=1.01x    frame= 1888 fps= 30 q=-1.0 size=N/A time=00:01:02.93 bitrate=N/A speed=1.01x    frame= 1902 fps= 30 q=-1.0 size=N/A time=00:01:03.39 bitrate=N/A speed=1.01x    frame= 1918 fps= 30 q=-1.0 size=N/A time=00:01:03.93 bitrate=N/A speed=1.01x    frame= 1933 fps= 30 q=-1.0 size=N/A time=00:01:04.41 bitrate=N/A speed=1.01x    frame= 1948 fps= 30 q=-1.0 size=N/A time=00:01:04.93 bitrate=N/A speed=1.01x    frame= 1963 fps= 30 q=-1.0 size=N/A time=00:01:05.41 bitrate=N/A speed=1.01x    frame= 1978 fps= 30 q=-1.0 size=N/A time=00:01:05.93 bitrate=N/A speed=1.01x    frame= 1993 fps= 30 q=-1.0 size=N/A time=00:01:06.41 bitrate=N/A speed=1.01x    frame= 2008 fps= 30 q=-1.0 size=N/A time=00:01:06.93 bitrate=N/A speed=1.01x    frame= 2023 fps= 30 q=-1.0 size=N/A time=00:01:07.41 bitrate=N/A speed=1.01x    frame= 2038 fps= 30 q=-1.0 size=N/A time=00:01:07.93 bitrate=N/A speed=1.01x    frame= 2052 fps= 30 q=-1.0 size=N/A time=00:01:08.39 bitrate=N/A speed=1.01x    frame= 2068 fps= 30 q=-1.0 size=N/A time=00:01:08.93 bitrate=N/A speed=1.01x    frame= 2083 fps= 30 q=-1.0 size=N/A time=00:01:09.43 bitrate=N/A speed=1.01x    frame= 2098 fps= 30 q=-1.0 size=N/A time=00:01:09.93 bitrate=N/A speed=1.01x    frame= 2113 fps= 30 q=-1.0 size=N/A time=00:01:10.41 bitrate=N/A speed=1.01x    frame= 2128 fps= 30 q=-1.0 size=N/A time=00:01:10.93 bitrate=N/A speed=1.01x    frame= 2143 fps= 30 q=-1.0 size=N/A time=00:01:11.43 bitrate=N/A speed=1.01x    frame= 2158 fps= 30 q=-1.0 size=N/A time=00:01:11.93 bitrate=N/A speed=1.01x    frame= 2172 fps= 30 q=-1.0 size=N/A time=00:01:12.39 bitrate=N/A speed=1.01x    frame= 2188 fps= 30 q=-1.0 size=N/A time=00:01:12.93 bitrate=N/A speed=1.01x    frame= 2202 fps= 30 q=-1.0 size=N/A time=00:01:13.39 bitrate=N/A speed=1.01x    frame= 2218 fps= 30 q=-1.0 size=N/A time=00:01:13.93 bitrate=N/A speed=1.01x    frame= 2233 fps= 30 q=-1.0 size=N/A time=00:01:14.43 bitrate=N/A speed=1.01x    frame= 2248 fps= 30 q=-1.0 size=N/A time=00:01:14.93 bitrate=N/A speed=1.01x    frame= 2263 fps= 30 q=-1.0 size=N/A time=00:01:15.43 bitrate=N/A speed=1.01x    frame= 2278 fps= 30 q=-1.0 size=N/A time=00:01:15.93 bitrate=N/A speed=1.01x    frame= 2293 fps= 30 q=-1.0 size=N/A time=00:01:16.43 bitrate=N/A speed=1.01x    frame= 2308 fps= 30 q=-1.0 size=N/A time=00:01:16.93 bitrate=N/A speed=1.01x    frame= 2323 fps= 30 q=-1.0 size=N/A time=00:01:17.43 bitrate=N/A speed=1.01x    frame= 2338 fps= 30 q=-1.0 size=N/A time=00:01:17.93 bitrate=N/A speed=1.01x    frame= 2352 fps= 30 q=-1.0 size=N/A time=00:01:18.39 bitrate=N/A speed=1.01x    frame= 2368 fps= 30 q=-1.0 size=N/A time=00:01:18.93 bitrate=N/A speed=1.01x    frame= 2383 fps= 30 q=-1.0 size=N/A time=00:01:19.43 bitrate=N/A speed=1.01x    frame= 2398 fps= 30 q=-1.0 size=N/A time=00:01:19.93 bitrate=N/A speed=1.01x    frame= 2413 fps= 30 q=-1.0 size=N/A time=00:01:20.43 bitrate=N/A speed=1.01x    frame= 2428 fps= 30 q=-1.0 size=N/A time=00:01:20.93 bitrate=N/A speed=1.01x    frame= 2443 fps= 30 q=-1.0 size=N/A time=00:01:21.43 bitrate=N/A speed=1.01x    frame= 2458 fps= 30 q=-1.0 size=N/A time=00:01:21.93 bitrate=N/A speed=1.01x    frame= 2473 fps= 30 q=-1.0 size=N/A time=00:01:22.43 bitrate=N/A speed=1.01x    frame= 2488 fps= 30 q=-1.0 size=N/A time=00:01:22.93 bitrate=N/A speed=1.01x    frame= 2502 fps= 30 q=-1.0 size=N/A time=00:01:23.37 bitrate=N/A speed=1.01x    frame= 2518 fps= 30 q=-1.0 size=N/A time=00:01:23.93 bitrate=N/A speed=1.01x    frame= 2533 fps= 30 q=-1.0 size=N/A time=00:01:24.43 bitrate=N/A speed=1.01x    frame= 2548 fps= 30 q=-1.0 size=N/A time=00:01:24.93 bitrate=N/A speed=1.01x    frame= 2563 fps= 30 q=-1.0 size=N/A time=00:01:25.41 bitrate=N/A speed=1.01x    frame= 2578 fps= 30 q=-1.0 size=N/A time=00:01:25.93 bitrate=N/A speed=1.01x    frame= 2593 fps= 30 q=-1.0 size=N/A time=00:01:26.43 bitrate=N/A speed=1.01x    frame= 2608 fps= 30 q=-1.0 size=N/A time=00:01:26.93 bitrate=N/A speed=1.01x    frame= 2623 fps= 30 q=-1.0 size=N/A time=00:01:27.43 bitrate=N/A speed=1.01x    frame= 2638 fps= 30 q=-1.0 size=N/A time=00:01:27.93 bitrate=N/A speed=1.01x    frame= 2652 fps= 30 q=-1.0 size=N/A time=00:01:28.39 bitrate=N/A speed=1.01x    frame= 2668 fps= 30 q=-1.0 size=N/A time=00:01:28.93 bitrate=N/A speed=1.01x    frame= 2683 fps= 30 q=-1.0 size=N/A time=00:01:29.43 bitrate=N/A speed=1.01x    frame= 2698 fps= 30 q=-1.0 size=N/A time=00:01:29.93 bitrate=N/A speed=1.01x    frame= 2713 fps= 30 q=-1.0 size=N/A time=00:01:30.43 bitrate=N/A speed=1.01x    frame= 2728 fps= 30 q=-1.0 size=N/A time=00:01:30.93 bitrate=N/A speed=1.01x    frame= 2743 fps= 30 q=-1.0 size=N/A time=00:01:31.43 bitrate=N/A speed=1.01x    frame= 2758 fps= 30 q=-1.0 size=N/A time=00:01:31.93 bitrate=N/A speed=1.01x    frame= 2773 fps= 30 q=-1.0 size=N/A time=00:01:32.43 bitrate=N/A speed=1.01x    frame= 2788 fps= 30 q=-1.0 size=N/A time=00:01:32.93 bitrate=N/A speed=1.01x    frame= 2803 fps= 30 q=-1.0 size=N/A time=00:01:33.43 bitrate=N/A speed=1.01x    frame= 2818 fps= 30 q=-1.0 size=N/A time=00:01:33.93 bitrate=N/A speed=1.01x    frame= 2833 fps= 30 q=-1.0 size=N/A time=00:01:34.43 bitrate=N/A speed=1.01x    frame= 2848 fps= 30 q=-1.0 size=N/A time=00:01:34.93 bitrate=N/A speed=1.01x    frame= 2863 fps= 30 q=-1.0 size=N/A time=00:01:35.43 bitrate=N/A speed=1.01x    frame= 2878 fps= 30 q=-1.0 size=N/A time=00:01:35.93 bitrate=N/A speed=1.01x    frame= 2893 fps= 30 q=-1.0 size=N/A time=00:01:36.43 bitrate=N/A speed=1.01x    frame= 2908 fps= 30 q=-1.0 size=N/A time=00:01:36.93 bitrate=N/A speed=1.01x    frame= 2924 fps= 30 q=-1.0 size=N/A time=00:01:37.45 bitrate=N/A speed=1.01x    frame= 2939 fps= 30 q=-1.0 size=N/A time=00:01:37.93 bitrate=N/A speed=1.01x    frame= 2952 fps= 30 q=-1.0 size=N/A time=00:01:38.37 bitrate=N/A speed=1.01x    frame= 2969 fps= 30 q=-1.0 size=N/A time=00:01:38.93 bitrate=N/A speed=1.01x    frame= 2984 fps= 30 q=-1.0 size=N/A time=00:01:39.45 bitrate=N/A speed=1.01x    frame= 2998 fps= 30 q=-1.0 size=N/A time=00:01:39.93 bitrate=N/A speed=1.01x    frame= 3013 fps= 30 q=-1.0 size=N/A time=00:01:40.43 bitrate=N/A speed=1.01x    frame= 3029 fps= 30 q=-1.0 size=N/A time=00:01:40.96 bitrate=N/A speed=1.01x    frame= 3044 fps= 30 q=-1.0 size=N/A time=00:01:41.45 bitrate=N/A speed=1.01x    frame= 3058 fps= 30 q=-1.0 size=N/A time=00:01:41.93 bitrate=N/A speed=1.01x    frame= 3073 fps= 30 q=-1.0 size=N/A time=00:01:42.43 bitrate=N/A speed=1.01x    frame= 3088 fps= 30 q=-1.0 size=N/A time=00:01:42.93 bitrate=N/A speed=1.01x    frame= 3102 fps= 30 q=-1.0 size=N/A time=00:01:43.37 bitrate=N/A speed=1.01x    frame= 3119 fps= 30 q=-1.0 size=N/A time=00:01:43.95 bitrate=N/A speed=1.01x    frame= 3134 fps= 30 q=-1.0 size=N/A time=00:01:44.45 bitrate=N/A speed=1.01x    frame= 3148 fps= 30 q=-1.0 size=N/A time=00:01:44.93 bitrate=N/A speed=1.01x    frame= 3164 fps= 30 q=-1.0 size=N/A time=00:01:45.45 bitrate=N/A speed=1.01x    frame= 3178 fps= 30 q=-1.0 size=N/A time=00:01:45.93 bitrate=N/A speed=1.01x    frame= 3193 fps= 30 q=-1.0 size=N/A time=00:01:46.43 bitrate=N/A speed=1.01x    frame= 3208 fps= 30 q=-1.0 size=N/A time=00:01:46.93 bitrate=N/A speed=1.01x    frame= 3223 fps= 30 q=-1.0 size=N/A time=00:01:47.43 bitrate=N/A speed=1.01x    frame= 3238 fps= 30 q=-1.0 size=N/A time=00:01:47.93 bitrate=N/A speed=1.01x    frame= 3252 fps= 30 q=-1.0 size=N/A time=00:01:48.39 bitrate=N/A speed=1.01x    frame= 3268 fps= 30 q=-1.0 size=N/A time=00:01:48.93 bitrate=N/A speed=1.01x    frame= 3283 fps= 30 q=-1.0 size=N/A time=00:01:49.43 bitrate=N/A speed=1.01x    frame= 3298 fps= 30 q=-1.0 size=N/A time=00:01:49.93 bitrate=N/A speed=1.01x    frame= 3313 fps= 30 q=-1.0 size=N/A time=00:01:50.43 bitrate=N/A speed=1.01x    frame= 3328 fps= 30 q=-1.0 size=N/A time=00:01:50.93 bitrate=N/A speed=1.01x    frame= 3343 fps= 30 q=-1.0 size=N/A time=00:01:51.43 bitrate=N/A speed=1.01x    frame= 3358 fps= 30 q=-1.0 size=N/A time=00:01:51.93 bitrate=N/A speed=1.01x    frame= 3373 fps= 30 q=-1.0 size=N/A time=00:01:52.43 bitrate=N/A speed=1.01x    frame= 3388 fps= 30 q=-1.0 size=N/A time=00:01:52.93 bitrate=N/A speed=1.01x    frame= 3402 fps= 30 q=-1.0 size=N/A time=00:01:53.39 bitrate=N/A speed=1.01x    frame= 3418 fps= 30 q=-1.0 size=N/A time=00:01:53.93 bitrate=N/A speed=1.01x    frame= 3433 fps= 30 q=-1.0 size=N/A time=00:01:54.43 bitrate=N/A speed=1.01x    frame= 3448 fps= 30 q=-1.0 size=N/A time=00:01:54.93 bitrate=N/A speed=1.01x    frame= 3464 fps= 30 q=-1.0 size=N/A time=00:01:55.45 bitrate=N/A speed=1.01x    frame= 3479 fps= 30 q=-1.0 size=N/A time=00:01:55.96 bitrate=N/A speed=1.01x    frame= 3493 fps= 30 q=-1.0 size=N/A time=00:01:56.43 bitrate=N/A speed=1.01x    frame= 3508 fps= 30 q=-1.0 size=N/A time=00:01:56.93 bitrate=N/A speed=1.01x    frame= 3524 fps= 30 q=-1.0 size=N/A time=00:01:57.45 bitrate=N/A speed=1.01x    frame= 3539 fps= 30 q=-1.0 size=N/A time=00:01:57.96 bitrate=N/A speed=1.01x    frame= 3552 fps= 30 q=-1.0 size=N/A time=00:01:58.39 bitrate=N/A speed=1.01x    frame= 3569 fps= 30 q=-1.0 size=N/A time=00:01:58.96 bitrate=N/A speed=1.01x    frame= 3583 fps= 30 q=-1.0 size=N/A time=00:01:59.43 bitrate=N/A speed=1.01x    frame= 3599 fps= 30 q=-1.0 size=N/A time=00:01:59.96 bitrate=N/A speed=1.01x    frame= 3614 fps= 30 q=-1.0 size=N/A time=00:02:00.45 bitrate=N/A speed=1.01x    frame= 3629 fps= 30 q=-1.0 size=N/A time=00:02:00.96 bitrate=N/A speed=1.01x    frame= 3643 fps= 30 q=-1.0 size=N/A time=00:02:01.43 bitrate=N/A speed=1.01x    frame= 3659 fps= 30 q=-1.0 size=N/A time=00:02:01.96 bitrate=N/A speed=1.01x    frame= 3674 fps= 30 q=-1.0 size=N/A time=00:02:02.45 bitrate=N/A speed=1.01x    frame= 3689 fps= 30 q=-1.0 size=N/A time=00:02:02.96 bitrate=N/A speed=1.01x    frame= 3702 fps= 30 q=-1.0 size=N/A time=00:02:03.37 bitrate=N/A speed=1.01x    frame= 3719 fps= 30 q=-1.0 size=N/A time=00:02:03.96 bitrate=N/A speed=1.01x    frame= 3733 fps= 30 q=-1.0 size=N/A time=00:02:04.43 bitrate=N/A speed=1.01x    frame= 3748 fps= 30 q=-1.0 size=N/A time=00:02:04.93 bitrate=N/A speed=1.01x    frame= 3763 fps= 30 q=-1.0 size=N/A time=00:02:05.43 bitrate=N/A speed=1.01x    frame= 3779 fps= 30 q=-1.0 size=N/A time=00:02:05.96 bitrate=N/A speed=1.01x    frame= 3793 fps= 30 q=-1.0 size=N/A time=00:02:06.43 bitrate=N/A speed=1.01x    frame= 3809 fps= 30 q=-1.0 size=N/A time=00:02:06.96 bitrate=N/A speed=1.01x    frame= 3823 fps= 30 q=-1.0 size=N/A time=00:02:07.43 bitrate=N/A speed=1.01x    frame= 3839 fps= 30 q=-1.0 size=N/A time=00:02:07.96 bitrate=N/A speed=1.01x    frame= 3852 fps= 30 q=-1.0 size=N/A time=00:02:08.39 bitrate=N/A speed=1.01x    frame= 3868 fps= 30 q=-1.0 size=N/A time=00:02:08.93 bitrate=N/A speed=1.01x    frame= 3884 fps= 30 q=-1.0 size=N/A time=00:02:09.45 bitrate=N/A speed=1.01x    frame= 3899 fps= 30 q=-1.0 size=N/A time=00:02:09.96 bitrate=N/A speed=1.01x    frame= 3913 fps= 30 q=-1.0 size=N/A time=00:02:10.43 bitrate=N/A speed=1.01x    frame= 3928 fps= 30 q=-1.0 size=N/A time=00:02:10.93 bitrate=N/A speed=1.01x    frame= 3943 fps= 30 q=-1.0 size=N/A time=00:02:11.43 bitrate=N/A speed=1.01x    frame= 3958 fps= 30 q=-1.0 size=N/A time=00:02:11.93 bitrate=N/A speed=1.01x    frame= 3973 fps= 30 q=-1.0 size=N/A time=00:02:12.43 bitrate=N/A speed=1.01x    frame= 3988 fps= 30 q=-1.0 size=N/A time=00:02:12.93 bitrate=N/A speed=1.01x    frame= 4002 fps= 30 q=-1.0 size=N/A time=00:02:13.39 bitrate=N/A speed=1.01x    frame= 4018 fps= 30 q=-1.0 size=N/A time=00:02:13.93 bitrate=N/A speed=1.01x    frame= 4033 fps= 30 q=-1.0 size=N/A time=00:02:14.43 bitrate=N/A speed=1.01x    frame= 4048 fps= 30 q=-1.0 size=N/A time=00:02:14.93 bitrate=N/A speed=1.01x    frame= 4063 fps= 30 q=-1.0 size=N/A time=00:02:15.43 bitrate=N/A speed=1.01x    frame= 4078 fps= 30 q=-1.0 size=N/A time=00:02:15.93 bitrate=N/A speed=1.01x    frame= 4093 fps= 30 q=-1.0 size=N/A time=00:02:16.43 bitrate=N/A speed=1.01x    frame= 4109 fps= 30 q=-1.0 size=N/A time=00:02:16.96 bitrate=N/A speed=1.01x    frame= 4123 fps= 30 q=-1.0 size=N/A time=00:02:17.43 bitrate=N/A speed=1.01x    frame= 4139 fps= 30 q=-1.0 size=N/A time=00:02:17.96 bitrate=N/A speed=1.01x    frame= 4152 fps= 30 q=-1.0 size=N/A time=00:02:18.39 bitrate=N/A speed=1.01x    frame= 4168 fps= 30 q=-1.0 size=N/A time=00:02:18.93 bitrate=N/A speed=1.01x    frame= 4184 fps= 30 q=-1.0 size=N/A time=00:02:19.45 bitrate=N/A speed=1.01x    frame= 4199 fps= 30 q=-1.0 size=N/A time=00:02:19.96 bitrate=N/A speed=1.01x    frame= 4214 fps= 30 q=-1.0 size=N/A time=00:02:20.45 bitrate=N/A speed=1.01x    frame= 4229 fps= 30 q=-1.0 size=N/A time=00:02:20.96 bitrate=N/A speed=1.01x    frame= 4244 fps= 30 q=-1.0 size=N/A time=00:02:21.45 bitrate=N/A speed=1.01x    frame= 4259 fps= 30 q=-1.0 size=N/A time=00:02:21.96 bitrate=N/A speed=1.01x    frame= 4274 fps= 30 q=-1.0 size=N/A time=00:02:22.45 bitrate=N/A speed=1.01x    frame= 4289 fps= 30 q=-1.0 size=N/A time=00:02:22.96 bitrate=N/A speed=1.01x    frame= 4302 fps= 30 q=-1.0 size=N/A time=00:02:23.37 bitrate=N/A speed=1.01x    frame= 4319 fps= 30 q=-1.0 size=N/A time=00:02:23.96 bitrate=N/A speed=1.01x    frame= 4334 fps= 30 q=-1.0 size=N/A time=00:02:24.45 bitrate=N/A speed=1.01x    frame= 4349 fps= 30 q=-1.0 size=N/A time=00:02:24.96 bitrate=N/A speed=1.01x    frame= 4364 fps= 30 q=-1.0 size=N/A time=00:02:25.45 bitrate=N/A speed=1.01x    frame= 4379 fps= 30 q=-1.0 size=N/A time=00:02:25.96 bitrate=N/A speed=1.01x    frame= 4394 fps= 30 q=-1.0 size=N/A time=00:02:26.45 bitrate=N/A speed=1.01x    frame= 4409 fps= 30 q=-1.0 size=N/A time=00:02:26.96 bitrate=N/A speed=1.01x    frame= 4424 fps= 30 q=-1.0 size=N/A time=00:02:27.45 bitrate=N/A speed=1.01x    frame= 4439 fps= 30 q=-1.0 size=N/A time=00:02:27.96 bitrate=N/A speed=1.01x    frame= 4452 fps= 30 q=-1.0 size=N/A time=00:02:28.39 bitrate=N/A speed=1.01x    frame= 4469 fps= 30 q=-1.0 size=N/A time=00:02:28.96 bitrate=N/A speed=1.01x    frame= 4484 fps= 30 q=-1.0 size=N/A time=00:02:29.45 bitrate=N/A speed=1.01x    frame= 4498 fps= 30 q=-1.0 size=N/A time=00:02:29.93 bitrate=N/A speed=1.01x    frame= 4514 fps= 30 q=-1.0 size=N/A time=00:02:30.45 bitrate=N/A speed=1.01x    frame= 4529 fps= 30 q=-1.0 size=N/A time=00:02:30.96 bitrate=N/A speed=1.01x    frame= 4544 fps= 30 q=-1.0 size=N/A time=00:02:31.45 bitrate=N/A speed=1.01x    frame= 4559 fps= 30 q=-1.0 size=N/A time=00:02:31.96 bitrate=N/A speed=1.01x    frame= 4574 fps= 30 q=-1.0 size=N/A time=00:02:32.45 bitrate=N/A speed=1.01x    frame= 4589 fps= 30 q=-1.0 size=N/A time=00:02:32.96 bitrate=N/A speed=1.01x    frame= 4602 fps= 30 q=-1.0 size=N/A time=00:02:33.39 bitrate=N/A speed=1.01x    frame= 4619 fps= 30 q=-1.0 size=N/A time=00:02:33.96 bitrate=N/A speed=1.01x    frame= 4634 fps= 30 q=-1.0 size=N/A time=00:02:34.45 bitrate=N/A speed=1.01x    frame= 4649 fps= 30 q=-1.0 size=N/A time=00:02:34.96 bitrate=N/A speed=1.01x    frame= 4664 fps= 30 q=-1.0 size=N/A time=00:02:35.45 bitrate=N/A speed=1.01x    frame= 4679 fps= 30 q=-1.0 size=N/A time=00:02:35.96 bitrate=N/A speed=1.01x    frame= 4694 fps= 30 q=-1.0 size=N/A time=00:02:36.45 bitrate=N/A speed=1.01x    frame= 4709 fps= 30 q=-1.0 size=N/A time=00:02:36.96 bitrate=N/A speed=1.01x    frame= 4724 fps= 30 q=-1.0 size=N/A time=00:02:37.45 bitrate=N/A speed=1.01x    frame= 4739 fps= 30 q=-1.0 size=N/A time=00:02:37.96 bitrate=N/A speed=1.01x    frame= 4752 fps= 30 q=-1.0 size=N/A time=00:02:38.39 bitrate=N/A speed=1.01x    frame= 4769 fps= 30 q=-1.0 size=N/A time=00:02:38.96 bitrate=N/A speed=1.01x    frame= 4784 fps= 30 q=-1.0 size=N/A time=00:02:39.45 bitrate=N/A speed=1.01x    frame= 4799 fps= 30 q=-1.0 size=N/A time=00:02:39.96 bitrate=N/A speed=1.01x    frame= 4814 fps= 30 q=-1.0 size=N/A time=00:02:40.45 bitrate=N/A speed=1.01x    frame= 4829 fps= 30 q=-1.0 size=N/A time=00:02:40.96 bitrate=N/A speed=1.01x    frame= 4844 fps= 30 q=-1.0 size=N/A time=00:02:41.45 bitrate=N/A speed=1.01x    frame= 4859 fps= 30 q=-1.0 size=N/A time=00:02:41.96 bitrate=N/A speed=1.01x    frame= 4874 fps= 30 q=-1.0 size=N/A time=00:02:42.46 bitrate=N/A speed=1.01x    frame= 4889 fps= 30 q=-1.0 size=N/A time=00:02:42.96 bitrate=N/A speed=1.01x    frame= 4904 fps= 30 q=-1.0 size=N/A time=00:02:43.45 bitrate=N/A speed=1.01x    frame= 4919 fps= 30 q=-1.0 size=N/A time=00:02:43.96 bitrate=N/A speed=1.01x    frame= 4934 fps= 30 q=-1.0 size=N/A time=00:02:44.45 bitrate=N/A speed=1.01x    frame= 4949 fps= 30 q=-1.0 size=N/A time=00:02:44.96 bitrate=N/A speed=1.01x    frame= 4964 fps= 30 q=-1.0 size=N/A time=00:02:45.46 bitrate=N/A speed=1.01x    frame= 4979 fps= 30 q=-1.0 size=N/A time=00:02:45.96 bitrate=N/A speed=1.01x    frame= 4994 fps= 30 q=-1.0 size=N/A time=00:02:46.46 bitrate=N/A speed=1.01x    frame= 5009 fps= 30 q=-1.0 size=N/A time=00:02:46.96 bitrate=N/A speed=1.01x    frame= 5024 fps= 30 q=-1.0 size=N/A time=00:02:47.45 bitrate=N/A speed=1.01x    frame= 5039 fps= 30 q=-1.0 size=N/A time=00:02:47.96 bitrate=N/A speed=1.01x    frame= 5052 fps= 30 q=-1.0 size=N/A time=00:02:48.39 bitrate=N/A speed=1.01x    frame= 5069 fps= 30 q=-1.0 size=N/A time=00:02:48.96 bitrate=N/A speed=1.01x    frame= 5084 fps= 30 q=-1.0 size=N/A time=00:02:49.45 bitrate=N/A speed=1.01x    frame= 5099 fps= 30 q=-1.0 size=N/A time=00:02:49.96 bitrate=N/A speed=1.01x    frame= 5114 fps= 30 q=-1.0 size=N/A time=00:02:50.45 bitrate=N/A speed=1.01x    frame= 5129 fps= 30 q=-1.0 size=N/A time=00:02:50.96 bitrate=N/A speed=1.01x    frame= 5144 fps= 30 q=-1.0 size=N/A time=00:02:51.45 bitrate=N/A speed=1.01x    frame= 5159 fps= 30 q=-1.0 size=N/A time=00:02:51.96 bitrate=N/A speed=1.01x    frame= 5174 fps= 30 q=-1.0 size=N/A time=00:02:52.45 bitrate=N/A speed=1.01x    frame= 5189 fps= 30 q=-1.0 size=N/A time=00:02:52.96 bitrate=N/A speed=1.01x    frame= 5202 fps= 30 q=-1.0 size=N/A time=00:02:53.39 bitrate=N/A speed=   1x    frame= 5219 fps= 30 q=-1.0 size=N/A time=00:02:53.96 bitrate=N/A speed=1.01x    frame= 5234 fps= 30 q=-1.0 size=N/A time=00:02:54.45 bitrate=N/A speed=1.01x    frame= 5249 fps= 30 q=-1.0 size=N/A time=00:02:54.96 bitrate=N/A speed=1.01x    frame= 5264 fps= 30 q=-1.0 size=N/A time=00:02:55.45 bitrate=N/A speed=1.01x    frame= 5279 fps= 30 q=-1.0 size=N/A time=00:02:55.96 bitrate=N/A speed=1.01x    frame= 5294 fps= 30 q=-1.0 size=N/A time=00:02:56.45 bitrate=N/A speed=1.01x    frame= 5309 fps= 30 q=-1.0 size=N/A time=00:02:56.96 bitrate=N/A speed=1.01x    frame= 5324 fps= 30 q=-1.0 size=N/A time=00:02:57.46 bitrate=N/A speed=1.01x    frame= 5339 fps= 30 q=-1.0 size=N/A time=00:02:57.96 bitrate=N/A speed=1.01x    frame= 5352 fps= 30 q=-1.0 size=N/A time=00:02:58.39 bitrate=N/A speed=   1x    frame= 5369 fps= 30 q=-1.0 size=N/A time=00:02:58.96 bitrate=N/A speed=1.01x    frame= 5384 fps= 30 q=-1.0 size=N/A time=00:02:59.45 bitrate=N/A speed=   1x    frame= 5395 fps= 30 q=-1.0 size=N/A time=00:02:59.81 bitrate=N/A speed=   1x    frame= 5414 fps= 30 q=-1.0 size=N/A time=00:03:00.46 bitrate=N/A speed=1.01x    frame= 5429 fps= 30 q=-1.0 size=N/A time=00:03:00.96 bitrate=N/A speed=1.01x    frame= 5444 fps= 30 q=-1.0 size=N/A time=00:03:01.46 bitrate=N/A speed=   1x    frame= 5459 fps= 30 q=-1.0 size=N/A time=00:03:01.96 bitrate=N/A speed=   1x    frame= 5474 fps= 30 q=-1.0 size=N/A time=00:03:02.46 bitrate=N/A speed=   1x    frame= 5490 fps= 30 q=-1.0 size=N/A time=00:03:02.97 bitrate=N/A speed=   1x    frame= 5502 fps= 30 q=-1.0 size=N/A time=00:03:03.37 bitrate=N/A speed=   1x    frame= 5512 fps= 30 q=-1.0 size=N/A time=00:03:03.73 bitrate=N/A speed=   1x    frame= 5533 fps= 30 q=-1.0 size=N/A time=00:03:04.43 bitrate=N/A speed=   1x    frame= 5549 fps= 30 q=-1.0 size=N/A time=00:03:04.96 bitrate=N/A speed=   1x    frame= 5564 fps= 30 q=-1.0 size=N/A time=00:03:05.46 bitrate=N/A speed=   1x    frame= 5579 fps= 30 q=-1.0 size=N/A time=00:03:05.96 bitrate=N/A speed=   1x    frame= 5594 fps= 30 q=-1.0 size=N/A time=00:03:06.46 bitrate=N/A speed=   1x    frame= 5609 fps= 30 q=-1.0 size=N/A time=00:03:06.96 bitrate=N/A speed=   1x    frame= 5624 fps= 30 q=-1.0 size=N/A time=00:03:07.46 bitrate=N/A speed=   1x    frame= 5639 fps= 30 q=-1.0 size=N/A time=00:03:07.96 bitrate=N/A speed=   1x    frame= 5652 fps= 30 q=-1.0 size=N/A time=00:03:08.39 bitrate=N/A speed=   1x    frame= 5669 fps= 30 q=-1.0 size=N/A time=00:03:08.96 bitrate=N/A speed=   1x    frame= 5684 fps= 30 q=-1.0 size=N/A time=00:03:09.46 bitrate=N/A speed=   1x    frame= 5699 fps= 30 q=-1.0 size=N/A time=00:03:09.96 bitrate=N/A speed=   1x    frame= 5714 fps= 30 q=-1.0 size=N/A time=00:03:10.46 bitrate=N/A speed=   1x    frame= 5729 fps= 30 q=-1.0 size=N/A time=00:03:10.96 bitrate=N/A speed=   1x    frame= 5744 fps= 30 q=-1.0 size=N/A time=00:03:11.46 bitrate=N/A speed=   1x    frame= 5759 fps= 30 q=-1.0 size=N/A time=00:03:11.96 bitrate=N/A speed=   1x    frame= 5774 fps= 30 q=-1.0 size=N/A time=00:03:12.45 bitrate=N/A speed=   1x    frame= 5789 fps= 30 q=-1.0 size=N/A time=00:03:12.96 bitrate=N/A speed=   1x    frame= 5802 fps= 30 q=-1.0 size=N/A time=00:03:13.39 bitrate=N/A speed=   1x    frame= 5819 fps= 30 q=-1.0 size=N/A time=00:03:13.96 bitrate=N/A speed=   1x    frame= 5834 fps= 30 q=-1.0 size=N/A time=00:03:14.46 bitrate=N/A speed=   1x    frame= 5849 fps= 30 q=-1.0 size=N/A time=00:03:14.96 bitrate=N/A speed=   1x    frame= 5864 fps= 30 q=-1.0 size=N/A time=00:03:15.46 bitrate=N/A speed=   1x    frame= 5879 fps= 30 q=-1.0 size=N/A time=00:03:15.96 bitrate=N/A speed=   1x    frame= 5894 fps= 30 q=-1.0 size=N/A time=00:03:16.46 bitrate=N/A speed=   1x    frame= 5909 fps= 30 q=-1.0 size=N/A time=00:03:16.96 bitrate=N/A speed=   1x    frame= 5924 fps= 30 q=-1.0 size=N/A time=00:03:17.46 bitrate=N/A speed=   1x    frame= 5939 fps= 30 q=-1.0 size=N/A time=00:03:17.96 bitrate=N/A speed=   1x    frame= 5952 fps= 30 q=-1.0 size=N/A time=00:03:18.39 bitrate=N/A speed=   1x    frame= 5969 fps= 30 q=-1.0 size=N/A time=00:03:18.96 bitrate=N/A speed=   1x    frame= 5984 fps= 30 q=-1.0 size=N/A time=00:03:19.45 bitrate=N/A speed=   1x    frame= 5999 fps= 30 q=-1.0 size=N/A time=00:03:19.96 bitrate=N/A speed=   1x    frame= 6014 fps= 30 q=-1.0 size=N/A time=00:03:20.45 bitrate=N/A speed=   1x    frame= 6030 fps= 30 q=-1.0 size=N/A time=00:03:20.97 bitrate=N/A speed=   1x    frame= 6044 fps= 30 q=-1.0 size=N/A time=00:03:21.46 bitrate=N/A speed=   1x    frame= 6059 fps= 30 q=-1.0 size=N/A time=00:03:21.96 bitrate=N/A speed=   1x    frame= 6075 fps= 30 q=-1.0 size=N/A time=00:03:22.49 bitrate=N/A speed=   1x    [in#0/rtsp @ 0x563b579ccec0] Error during demuxing: Immediate exit requested
[out#0/rtsp @ 0x563b579d4ec0] video:98357KiB audio:1717KiB subtitle:0KiB other streams:0KiB global headers:0KiB muxing overhead: unknown
frame= 6084 fps= 30 q=-1.0 Lsize=N/A time=00:03:22.79 bitrate=N/A speed=   1x    
Exiting normally, received signal 15.
